<svg xmlns="http://www.w3.org/2000/svg" viewBox="0 0 1080 1080" width="1080" height="1080">
  <defs>
    <linearGradient id="bg" x1="0%" y1="0%" x2="100%" y2="100%">
      <stop offset="0%" stop-color="#0d0d18"/>
      <stop offset="100%" stop-color="#0a0a0f"/>
    </linearGradient>
    <linearGradient id="gr" x1="0%" y1="0%" x2="100%" y2="0%">
      <stop offset="0%" stop-color="#6c5ce7"/>
      <stop offset="100%" stop-color="#00d2ff"/>
    </linearGradient>
  </defs>

  <rect width="1080" height="1080" fill="url(#bg)"/>
  <circle cx="950" cy="150" r="280" fill="#00d2ff" fill-opacity="0.05"/>
  <circle cx="100" cy="900" r="260" fill="#6c5ce7" fill-opacity="0.06"/>

  <!-- Slide number -->
  <text x="80" y="110" font-family="'Segoe UI',system-ui,sans-serif" font-size="22" fill="#8888a0" letter-spacing="2">04 / 07</text>
  <rect x="80" y="120" width="920" height="1.5" fill="white" fill-opacity="0.06"/>

  <!-- Eyebrow -->
  <rect x="80" y="180" width="6" height="60" rx="3" fill="url(#gr)"/>
  <text x="106" y="222" font-family="'Segoe UI',system-ui,sans-serif" font-size="26" font-weight="700" fill="#6c5ce7" letter-spacing="2">WHAT I'VE BUILT</text>

  <text x="80" y="330" font-family="'Segoe UI',system-ui,sans-serif" font-size="62" font-weight="800" fill="#e8e8f0" letter-spacing="-1">Here's a taste:</text>

  <!-- Project list items -->
  <!-- Item 1 -->
  <rect x="80" y="380" width="920" height="100" rx="14" fill="#16161f" stroke="rgba(108,92,231,0.2)" stroke-width="1"/>
  <rect x="80" y="380" width="6" height="100" rx="3" fill="#6c5ce7"/>
  <text x="116" y="425" font-family="'Segoe UI',system-ui,sans-serif" font-size="30" font-weight="700" fill="#e8e8f0">WhatsApp Order Bot</text>
  <text x="116" y="462" font-family="'Segoe UI',system-ui,sans-serif" font-size="24" fill="#8888a0">Food business — fully automated ordering</text>

  <!-- Item 2 -->
  <rect x="80" y="496" width="920" height="100" rx="14" fill="#16161f" stroke="rgba(108,92,231,0.15)" stroke-width="1"/>
  <rect x="80" y="496" width="6" height="100" rx="3" fill="#7d6ee8"/>
  <text x="116" y="541" font-family="'Segoe UI',system-ui,sans-serif" font-size="30" font-weight="700" fill="#e8e8f0">Job Hunting Pipeline</text>
  <text x="116" y="578" font-family="'Segoe UI',system-ui,sans-serif" font-size="24" fill="#8888a0">Scrapes, filters, writes CVs &amp; cover letters</text>

  <!-- Item 3 -->
  <rect x="80" y="612" width="920" height="100" rx="14" fill="#16161f" stroke="rgba(0,210,255,0.15)" stroke-width="1"/>
  <rect x="80" y="612" width="6" height="100" rx="3" fill="#00b8e6"/>
  <text x="116" y="657" font-family="'Segoe UI',system-ui,sans-serif" font-size="30" font-weight="700" fill="#e8e8f0">CV Screening Agent</text>
  <text x="116" y="694" font-family="'Segoe UI',system-ui,sans-serif" font-size="24" fill="#8888a0">Reads &amp; scores candidates from Gmail</text>

  <!-- Item 4 -->
  <rect x="80" y="728" width="920" height="100" rx="14" fill="#16161f" stroke="rgba(0,210,255,0.1)" stroke-width="1"/>
  <rect x="80" y="728" width="6" height="100" rx="3" fill="#00d2ff"/>
  <text x="116" y="773" font-family="'Segoe UI',system-ui,sans-serif" font-size="30" font-weight="700" fill="#e8e8f0">Email Assistant Agent</text>
  <text x="116" y="810" font-family="'Segoe UI',system-ui,sans-serif" font-size="24" fill="#8888a0">Reads, replies, books meetings automatically</text>

  <!-- More label -->
  <text x="540" y="880" font-family="'Segoe UI',system-ui,sans-serif" font-size="26" fill="#8888a0" text-anchor="middle">+ 6 more workflows in production →</text>

  <!-- Bottom -->
  <text x="80" y="980" font-family="'Segoe UI',system-ui,sans-serif" font-size="28" font-weight="700" fill="#6c5ce7">@efiayomideai</text>
  <text x="1000" y="980" font-family="'Segoe UI',system-ui,sans-serif" font-size="22" fill="#8888a0" text-anchor="end">swipe →</text>
  <rect x="0" y="1070" width="1080" height="10" fill="url(#gr)" fill-opacity="0.6"/>
</svg>
